<svg width="16" height="16" viewBox="0 0 16 16" fill="none" xmlns="http://www.w3.org/2000/svg">
<path d="M6.78999 8.88446C5.47224 8.88446 1.59393 8.88446 1.59393 8.88446C1.18222 8.88446 0.845337 9.22129 0.845337 9.633V15.2515C0.845337 15.6632 1.18222 16 1.59393 16C1.59393 16 5.55339 16 6.87736 16C7.05346 16 7.05346 15.8109 7.05346 15.8109V9.13883C7.05346 9.13883 7.05341 8.88446 6.78999 8.88446Z" fill="white"/>
<path d="M13.7773 8.88446C13.7773 8.88446 9.88416 8.88446 8.58653 8.88446C8.27038 8.88446 8.31771 9.21371 8.31771 9.21371V15.817C8.31771 15.817 8.31515 15.9999 8.50533 15.9999C9.82329 15.9999 13.7772 15.9999 13.7772 15.9999C14.1889 15.9999 14.5258 15.6631 14.5258 15.2513V9.633C14.5259 9.22129 14.189 8.88446 13.7773 8.88446Z" fill="white"/>
<path d="M7.05341 4.46374C7.05341 4.46374 7.05341 4.21008 6.80275 4.21008C5.30181 4.21008 0.74859 4.21008 0.74859 4.21008C0.336882 4.21008 0 4.54696 0 4.95862V7.2953C0 7.70701 0.336882 8.04384 0.74859 8.04384C0.74859 8.04384 5.32221 8.04384 6.82326 8.04384C7.05341 8.04384 7.05341 7.84423 7.05341 7.84423V4.46374Z" fill="white"/>
<path d="M14.6226 4.21008C14.6226 4.21008 10.0675 4.21008 8.54912 4.21008C8.31783 4.21008 8.31783 4.43047 8.31783 4.43047V7.84886C8.31783 7.84886 8.31782 8.04384 8.59902 8.04384C10.1049 8.04384 14.6226 8.04384 14.6226 8.04384C15.0343 8.04384 15.3712 7.70701 15.3712 7.2953V4.95862C15.3712 4.54696 15.0343 4.21008 14.6226 4.21008Z" fill="white"/>
<path d="M4.50731 3.65623C4.16481 3.65623 3.85198 3.62907 3.57765 3.57546C2.88087 3.43933 2.40197 3.17439 2.11357 2.76557C1.85517 2.39918 1.77609 1.9475 1.87846 1.42301C2.05778 0.50535 2.67406 0 3.61364 0C3.81249 0 4.03086 0.0229605 4.26276 0.0682817C4.85264 0.183521 5.60712 0.521766 6.28105 0.973068C7.42444 1.73884 7.48099 2.2149 7.42406 2.50641C7.34034 2.93475 6.93998 3.24082 6.20006 3.44217C5.70016 3.57819 5.08317 3.65623 4.50731 3.65623ZM3.6137 1.19978C3.24982 1.19978 3.12477 1.30144 3.0561 1.65305C2.99993 1.94052 3.07077 2.04092 3.09401 2.07392C3.1913 2.2119 3.44474 2.32698 3.80769 2.39782C4.00354 2.43611 4.24552 2.45634 4.50725 2.45634C5.08279 2.45634 5.58983 2.36913 5.92628 2.27375C5.95077 2.26682 5.98878 2.23786 5.94804 2.21359C5.50819 1.85528 4.70348 1.37681 4.03272 1.24576C3.87646 1.21533 3.73543 1.19978 3.6137 1.19978Z" fill="white"/>
<path d="M10.8812 3.65624C10.8812 3.65624 10.8812 3.65624 10.8811 3.65624C10.3052 3.65624 9.68831 3.5782 9.18842 3.44218C8.44844 3.24088 8.04813 2.93476 7.96442 2.50647C7.90753 2.21496 7.96398 1.7389 9.10748 0.97313C9.7813 0.521827 10.5358 0.183582 11.1258 0.0683427C11.3577 0.0230216 11.576 6.10352e-05 11.7747 6.10352e-05C12.7145 6.10352e-05 13.3307 0.505466 13.5099 1.42312C13.6124 1.94756 13.5334 2.39925 13.2749 2.76563C12.9865 3.1745 12.5077 3.4394 11.8107 3.57552C11.5365 3.62903 11.2237 3.65624 10.8812 3.65624ZM9.45003 2.20618C9.41104 2.22881 9.42991 2.26454 9.45014 2.27037C9.78643 2.36707 10.2988 2.4564 10.8811 2.4564C11.143 2.4564 11.3848 2.43617 11.5807 2.39788C11.9436 2.32698 12.1972 2.21196 12.2944 2.07398C12.3178 2.04099 12.3887 1.94058 12.3323 1.65311C12.2637 1.3015 12.1386 1.19984 11.7747 1.19984C11.653 1.19984 11.5121 1.21533 11.3557 1.24587C10.6849 1.37688 9.88988 1.84781 9.45003 2.20618Z" fill="white"/>
</svg>
